<!-- icon666.com - MILLIONS vector ICONS FREE --><svg viewBox="0 0 128 128" xmlns="http://www.w3.org/2000/svg"><g><path d="m111.75 32.64a3.64 3.64 0 0 0 -3.64-3.64h-88.22a3.64 3.64 0 0 0 -3.64 3.64v55.36h95.5z" fill="#4d5e80"></path><path d="m16.25 35.714h95.5v52.286h-95.5z" fill="#00b7f0"></path><path d="m114.483 99a4.266 4.266 0 0 0 4.267-4.267v-6.733h-109.5v6.733a4.266 4.266 0 0 0 4.267 4.267z" fill="#4d5e80"></path><path d="m53.25 88h21.5v5.5h-21.5z" fill="#3c4465"></path></g><g fill="#292a2d"><path d="m111.75 83.346a1.751 1.751 0 0 0 1.75-1.75v-48.956a5.4 5.4 0 0 0 -5.39-5.39h-88.22a5.4 5.4 0 0 0 -5.39 5.39v53.61h-5.25a1.751 1.751 0 0 0 -1.75 1.75v6.733a6.024 6.024 0 0 0 6.017 6.017h100.966a6.024 6.024 0 0 0 6.017-6.017v-6.733a1.751 1.751 0 0 0 -1.75-1.75h-74.75a1.75 1.75 0 0 0 0 3.5h7.5v3.75a1.751 1.751 0 0 0 1.75 1.75h21.5a1.751 1.751 0 0 0 1.75-1.75v-3.75h40.5v4.983a2.52 2.52 0 0 1 -2.517 2.517h-100.966a2.52 2.52 0 0 1 -2.517-2.517v-4.983h18.309a1.75 1.75 0 0 0 0-3.5h-11.309v-48.786h60.915a1.75 1.75 0 0 0 0-3.5h-60.915v-1.324a1.892 1.892 0 0 1 1.89-1.89h88.22a1.892 1.892 0 0 1 1.89 1.89v1.324h-16.042a1.75 1.75 0 0 0 0 3.5h16.042v44.136a1.751 1.751 0 0 0 1.75 1.746zm-38.75 8.404h-18v-2h18z"></path><path d="m36.149 86.25a1.75 1.75 0 0 0 0 3.5h.575a1.75 1.75 0 0 0 0-3.5z"></path><path d="m85 33.964a1.75 1.75 0 0 0 0 3.5h1.66a1.75 1.75 0 0 0 0-3.5z"></path></g></svg>